
<svg xmlns="http://www.w3.org/2000/svg" viewBox="0 0 100 100" width="100" height="100" fill="none">
  <defs>
    <linearGradient id="lm-plate" x1="0.3" y1="0" x2="0.7" y2="1">
      <stop offset="0" stop-color="#FF4359"></stop>
      <stop offset="0.5" stop-color="#E11D2E"></stop>
      <stop offset="1" stop-color="#A00C1E"></stop>
    </linearGradient>
    <linearGradient id="lm-spec" x1="0" y1="0" x2="0" y2="1">
      <stop offset="0" stop-color="#FFFFFF" stop-opacity="0.55"></stop>
      <stop offset="1" stop-color="#FFFFFF" stop-opacity="0"></stop>
    </linearGradient>
    <linearGradient id="lm-gold" x1="0" y1="0" x2="0" y2="1">
      <stop offset="0" stop-color="#FFF59E"></stop>
      <stop offset="0.5" stop-color="#FFD300"></stop>
      <stop offset="1" stop-color="#E4A60E"></stop>
    </linearGradient>
    <linearGradient id="lm-chrome" x1="0" y1="0" x2="0" y2="1">
      <stop offset="0" stop-color="#FFFFFF"></stop>
      <stop offset="0.42" stop-color="#D6DDE8"></stop>
      <stop offset="0.55" stop-color="#6F7889"></stop>
      <stop offset="1" stop-color="#23283A"></stop>
    </linearGradient>
    <linearGradient id="lm-spark-fill" x1="0" y1="0" x2="0" y2="1">
      <stop offset="0" stop-color="#FFFFE0"></stop>
      <stop offset="0.4" stop-color="#FFE65A"></stop>
      <stop offset="1" stop-color="#E8A100"></stop>
    </linearGradient>
    <radialGradient id="lm-burst" cx="0.5" cy="0.5" r="0.5">
      <stop offset="0" stop-color="#FFFAA8" stop-opacity="0.95"></stop>
      <stop offset="0.5" stop-color="#FFC727" stop-opacity="0.5"></stop>
      <stop offset="1" stop-color="#FFC727" stop-opacity="0"></stop>
    </radialGradient>
    <radialGradient id="lm-glow" cx="0.5" cy="0.5" r="0.5">
      <stop offset="0" stop-color="#1FB8FF" stop-opacity="0.55"></stop>
      <stop offset="1" stop-color="#1FB8FF" stop-opacity="0"></stop>
    </radialGradient>
    <filter id="lm-neon" x="-50%" y="-50%" width="200%" height="200%">
      <feGaussianBlur stdDeviation="1.6" result="blur"></feGaussianBlur>
      <feMerge><feMergeNode in="blur"></feMergeNode><feMergeNode in="SourceGraphic"></feMergeNode></feMerge>
    </filter>
  </defs>




  <ellipse cx="50" cy="50" rx="46" ry="44" fill="url(#lm-glow)"></ellipse>


  <g transform="translate(50 50) skewX(-7) translate(-50 -50)">

    <path d="M50 8 L80 18 V40 C80 58 67 70 50 76 C33 70 20 58 20 40 V18 Z" fill="url(#lm-plate)"></path>

    <path d="M50 8 L80 18 V26 Q62 19 50 19 Q38 19 20 26 V18 Z" fill="url(#lm-spec)"></path>

    <path d="M50 8 L80 18 V40 C80 58 67 70 50 76 C33 70 20 58 20 40 V18 Z" fill="none" stroke="url(#lm-gold)" stroke-width="2.4" stroke-linejoin="round" filter="url(#lm-neon)"></path>

    <path d="M50 11 L77.5 20 V40 C77.5 56.5 65.5 67.5 50 73 C34.5 67.5 22.5 56.5 22.5 40 V20 Z" fill="none" stroke="#FFF6A0" stroke-width="0.6" stroke-linejoin="round" opacity="0.85"></path>


    <g transform="translate(50 41)">
      <g class="anim-burst">
        <circle cx="0" cy="0" r="22" fill="url(#lm-burst)"></circle>
      </g>
    </g>


    <g transform="translate(50 41) rotate(16)">
      <g class="anim-spark">

        <path d="M0 -22 L4.94 -6.8 L20.92 -6.8 L7.99 2.6 L12.93 17.8 L0 8.4 L-12.93 17.8 L-7.99 2.6 L-20.92 -6.8 L-4.94 -6.8 Z" fill="url(#lm-spark-fill)" stroke="url(#lm-chrome)" stroke-width="2.2" stroke-linejoin="round"></path>
        <path d="M0 -9 L2.02 -2.78 L8.56 -2.78 L3.27 1.06 L5.29 7.28 L0 3.44 L-5.29 7.28 L-3.27 1.06 L-8.56 -2.78 L-2.02 -2.78 Z" fill="#FFFFFF" opacity="0.9"></path>
      </g>
    </g>


  </g>
</svg>