<svg
  xmlns="http://www.w3.org/2000/svg"
  width="1200"
  height="520"
  viewBox="0 0 1200 520"
  role="img"
  aria-label="Synthetic customer signature"
>
  <rect width="1200" height="520" fill="#f8fafc" />
  <rect
    x="70"
    y="70"
    width="1060"
    height="360"
    rx="18"
    fill="#ffffff"
    stroke="#94a3b8"
    stroke-width="5"
  />
  <text
    x="110"
    y="135"
    fill="#334155"
    font-family="Arial, sans-serif"
    font-size="30"
    font-weight="700"
  >
    Customer acknowledgement
  </text>
  <path
    d="M145 290c65-85 112 55 170-20 32-42 58-64 82-42 27 24-8 92 44 78 38-10 77-83 115-62 31 17 8 78 53 74 67-6 84-98 130-70 37 22-10 92 57 80 55-10 78-66 123-54"
    fill="none"
    stroke="#0f172a"
    stroke-width="13"
    stroke-linecap="round"
    stroke-linejoin="round"
  />
  <line x1="125" y1="350" x2="965" y2="350" stroke="#cbd5e1" stroke-width="4" />
  <text
    x="125"
    y="395"
    fill="#475569"
    font-family="Arial, sans-serif"
    font-size="24"
  >
    Jamie Rivera - sample signature for demo only
  </text>
</svg>
